<svg height="512" viewBox="0 0 128 128" width="512" xmlns="http://www.w3.org/2000/svg"><g><path d="m35.937 110.935v-89.06h-30.625v89.06a15.313 15.313 0 0 0 30.625 0z" fill="#c5c9f7"/><path d="m35.937 1.747v109.188a15.312 15.312 0 0 1 -15.312 15.312h86.75a15.312 15.312 0 0 0 15.312-15.312v-109.188z" fill="#e1e4fb"/><path d="m76.092 31.592h-11.857a1.75 1.75 0 0 1 -1.75-1.75v-18.095a1.75 1.75 0 0 1 1.75-1.747h11.857a1.75 1.75 0 0 1 0 3.5h-10.107v14.6h10.107a1.75 1.75 0 0 1 0 3.5z" fill="#0d70b2"/><path d="m57.794 31.592a1.749 1.749 0 0 1 -1.464-.792l-8.643-13.19v12.232a1.75 1.75 0 0 1 -3.5 0v-18.095a1.75 1.75 0 0 1 3.214-.959l8.643 13.19v-12.231a1.75 1.75 0 0 1 3.5 0v18.1a1.75 1.75 0 0 1 -1.75 1.75z" fill="#0d70b2"/><path d="m76.092 22.544h-11.857a1.75 1.75 0 0 1 0-3.5h11.857a1.75 1.75 0 0 1 0 3.5z" fill="#0d70b2"/><path d="m94.39 31.592a1.748 1.748 0 0 1 -1.464-.791l-4.465-6.814-4.461 6.813a1.75 1.75 0 0 1 -3.214-.959v-18.094a1.75 1.75 0 0 1 3.5 0v12.231l2.714-4.143a1.75 1.75 0 0 1 2.928 0l2.715 4.143v-12.231a1.75 1.75 0 0 1 3.5 0v18.1a1.75 1.75 0 0 1 -1.75 1.75z" fill="#0d70b2"/><path d="m108.687 31.592h-7.856a1.75 1.75 0 0 1 0-3.5h7.856a2.253 2.253 0 0 0 2.25-2.25v-1.048a2.253 2.253 0 0 0 -2.25-2.25h-3.856a5.756 5.756 0 0 1 -5.75-5.75v-1.047a5.756 5.756 0 0 1 5.75-5.75h7.856a1.75 1.75 0 0 1 0 3.5h-7.856a2.253 2.253 0 0 0 -2.25 2.25v1.047a2.253 2.253 0 0 0 2.25 2.25h3.856a5.756 5.756 0 0 1 5.75 5.75v1.048a5.756 5.756 0 0 1 -5.75 5.75z" fill="#0d70b2"/><path d="m45.937 39.849h66.75v18.651h-66.75z" fill="#00ddc1"/><g fill="#c5c9f7"><path d="m104.562 70.258h-50.5a1.75 1.75 0 0 1 0-3.5h50.5a1.75 1.75 0 0 1 0 3.5z"/><path d="m112.687 82.192h-66.75a1.75 1.75 0 0 1 0-3.5h66.75a1.75 1.75 0 0 1 0 3.5z"/><path d="m104.562 94.128h-50.5a1.75 1.75 0 0 1 0-3.5h50.5a1.75 1.75 0 0 1 0 3.5z"/><path d="m112.687 106.063h-66.75a1.75 1.75 0 0 1 0-3.5h66.75a1.75 1.75 0 0 1 0 3.5z"/><path d="m104.562 118h-50.5a1.75 1.75 0 0 1 0-3.5h50.5a1.75 1.75 0 0 1 0 3.5z"/></g></g></svg>